/* XPM */
static char *_a9db4e4364b4c6ad4f8084253c1cdd50auGKL8W40rx1ZpP[] = {
/* columns rows colors chars-per-pixel */
"64 64 60 1 ",
"  c #7DD3FC",
". c #7BFDFD",
"X c #9BC6C6",
"o c #86D7FE",
"O c #87DAFE",
"+ c #8CDBFE",
"@ c #94DEFF",
"# c #99DEFE",
"$ c #A4DFFE",
"% c #8AE4E4",
"& c #86ECF0",
"* c #8DEEF0",
"= c #8AE2FF",
"- c #90EFF0",
"; c #93E2FF",
": c #9BE3FF",
"> c #97E8FF",
", c #9EE9FF",
"< c #82F1F1",
"1 c #A3E3FF",
"2 c #ACE5FF",
"3 c #A4EAFF",
"4 c #ACEBFF",
"5 c #B3E6FF",
"6 c #B9E7FF",
"7 c #B4EAFF",
"8 c #BBEBFF",
"9 c #A7F3FF",
"0 c #ACF1FF",
"q c #B4F1FF",
"w c #BCF3FF",
"e c #B4F8FF",
"r c #C4EDFF",
"t c #CAEFFF",
"y c #D0EFFF",
"u c #C1F5FF",
"i c #C5F4FF",
"p c #C5F6FF",
"a c #C8F1FF",
"s c #C9F1FF",
"d c #CEF1FF",
"f c #CBF7FF",
"g c #C7F8FF",
"h c #CAF9FF",
"j c #CEF9FF",
"k c #D0F2FF",
"l c #D5F2FF",
"z c #D3F4FF",
"x c #D5F4FF",
"c c #D5F7FF",
"v c #D9F3FF",
"b c #DAF6FF",
"n c #DDF5FF",
"m c #DDF7FF",
"M c #D0FAFF",
"N c #DDF8FF",
"B c #E0F7FF",
"V c #E1F8FF",
"C c #E4FAFF",
"Z c #E9FBFF",
/* pixels */
".<<<<<<<<<<<<<<<<<<<<<<<<<<<<<<<<<<<<<<<<<<<<<<<<<<<<<<<<<<<<<<.",
"<XXXXXXXXXXXXXXXXXXXXXXXXXXXXXXXXXXXXXXXXXXXXXXXXXXXXXXXXXXXXXX<",
"<X%***************************-****-****-----****************%X<",
"<X*ewwwuuuuwwupppuupppuwupppphjfppfjjhhfhjjjhpuwwwwuggwqqqque*X<",
"<X*ukddkkkkkkkxbmblxbbxkdxbxxmVmbbbmNNmbbNVVVmxkkddzbbzdsrrdu*X<",
"<X*pkkkkklllklbmmmbxbmbxklbbbbmBmbvbmNmbbmVVCVmkkkklxbxxtrrdu*X<",
"<X*plkkkklxlllbmmmmllbmbkklxxlxmbbllbmmxxbmVVVmlkkkkkxxxttttw*X<",
"<X*pxlkkklxxllbmmBmllbmmkdklldkbbblkxmmblbbmVVmlkkzkkkxbtdtrw*X<",
"<X*ukklxxklbbxlbmBmblkxbxdtdkdkxbxlkkxxxkklbNVmbkkkkkxxxbdrtw*X<",
"<X*pklllxllbbxxxmBBblkkxxdrtdddtkkkkddzxkddxmmmmkkkkklxxbkttw*X<",
"<X*pxlllxxllxbblmmBmldddzdrrsdt8rskdsrszzstkbbbbllkkkkxxbxktw*X<",
"<X*pbxkklxlkkbblbmBmldtrksr8rsr5rrssrrrrdsrtkbbbxxkkkklxxbxtw*X<",
"<X*gbblklxldkbbxlmmmxdrrrsr88r85888psp88rssrtxbbxxkkkkkxlbbkw*X<",
"<X*hbbxkklkkdkxblvbbxkr88rr857882278ps888ss8rdxxxxkkkkkllxxkw*X<",
"<X*hNmblkklkdtkbllllxkr88888525812248w8828r88rzxxzkzxzkkxxxxw*X<",
"<X*hNNmxkklzdrtbkyykkdrr5557522712214777127877sxxkkxxzkkxlxxu*X<",
"<X*hVVmxkkkzdrtdkdtddsrr665222222#+@:477::47228fxkkklxxkzxxxu*X<",
"<X*fNVNxkddddrrrdstrsrrr865221111:@+@14q:;:2214pxxkklbxxxxxxu*X<",
"<X*fmCVbkdtddsrrrrtrrrrr885221111:@Oo@3q4>O:7318zxkkkxbxlxlxu*X<",
"<X-fbVVNxdrskdr8rrrrrrrrr872211111#+oO:4q3O+42:2skkkklbbxxllp*X<",
"<X-jmmVVbkttddr88rrrrr888875221:11:@OO;:qq+ 1411rkxlkkbmbxllp*X<",
"<X-jmmmVbkttssrr8888888888775211211:@+++4q3o:4425tlxkklmbbbbp*X<",
"<X*MVmbNbxdttttt87578887778874217421@+O+3qq:@27728dxktkbmmbbp*X<",
"<X*jCmbmmxktttddr7557888277887217741@OO@:7u4@#2758dxxdkbmmmbp*X<",
"<X*hVVmbbxkttttsr85278887788888227871:@+O4p8112886rzbkklbmmbp*X<",
"<X*fVVmbmxkttttssr52578r77788p87288721:#@2ws712888rdxlkkxbmmp*X<",
"<X*pbVmmmbldtttszs85278s8878sssr58888721118fs52r8rrrdxlklbmmp*X<",
"<X*uxmVNmblktttdxdr8578ss878rsss88rr88752$7fz858rrrrtxxkklmmp*X<",
"<X*ulmVVmmbkttttkkdr8788sr88rrsdrrrrrr88228szdr6rsrrrzxkklbmp*X<",
"<X*ulbBCBBblttttkzzdr888ssr88rdddtrrsrrr56rrkxdrrssrtdkkkllbp*X<",
"<X*pxbBCVVmxdttddzxzs888rddr8tkdxdttdsrr6rrrkbltrsddssdzkkllf*X<",
"<X*pbmBCCCVbkttkkxxxdr888zxr8tlkmkttkdttrrrtkxxltdzzdtdxkkykh-X<",
"<X*jBBVCZZCVbtyxdzbbxdrr6dxkttdkbxkdkkktttttdkxbkkkxxkkllxbbp*X<",
"<X-jBBmmZZCVbkylkzxbbktrrdxktttdbxkkkkddkdttdkbbxkkbblllbbbbp*X<",
"<X*jVmmmCCCCmllkkkxbbxdtrtkzkttdxxxkkkkklkkkkxbbbllbbblkbbbbp*X<",
"<X*jVBmmVVCCVblkkkzxbbkttrtxxdtkxxbxkdkkllkkkxbbmblbmmlklbmbp*X<",
"<X*fNVmmmNVCCmbklkkxbbxkdrrkxkkkkxbbkkkllllkklbbmblbmmblklbbp*X<",
"<X*pbNmbbmVVCVmkkkklxbxxtrrdxxlkkxbblkkkklllklbmmmbxbmbxklbbp*X<",
"<X*uxmmxxbmVVVmlkkkkkxxxttttkxxkklbblkkkklxlllbmmmmllbmbkklxu*X<",
"<X*wxmmblbbmVVmlkkzkkkxbtdtrdxxkklbbxlkkklxxllbmmBmllbmmktklu*X<",
"<X*udzxxkklbNVmbkkkkkxxxbdrtdkkbxbbxlklxxklbbxlbmBmblkxbxdtdw*X<",
"<X*wsdzxkddxmmmmkkkkkkxxbkttdkxbbbbbllllxllxbxxxmBBblkkxxdrtq*X<",
"<X*wsrszzstkbbmbllkkkkxxbxktylbbbbmbblllxxlkxbblmmBmldddzdrrq*X<",
"<X*wrrrrdsrtkbbbxxkkkklxxbxttlbbbbmmbxkklxlkkbblbmBmldtrksr8q*X<",
"<X*qsp88rssrtxbbxxkkkkkxlbbktlbbbbmmmblklxldkbbxlmmmxdrrrsr84*X<",
"<X*0ps888ss8rdxxxxkkkkkklbxkykxbbbmmmbxkklkkdkxblvmbxkr8rrr83*X<",
"<X*38w8828r88rkxxzkxxzkkxxxxkylmmmmmNmblkklkdtkbllllxkr888883*X<",
"<X*,4777127875rxxkkxxxkkxkxxltlVNmmNVNmxkklzdrtbkkkkkdrr55573&X<",
"<X&=:477::47228fxzkklxxkzxxxxlbmVmmmVVmxkkkzdrtdkdtddstr66523&X<",
"<X&=@14q:;:2214pxxkklbxxxxxxxxmmVBmmVVVxkddddrrrdsrrsrrr8652:&X<",
"<X&=o@3q4:O:7118zxkkkxbxlxlxxbmmCCBmBCVbkdtddsrrrrrrrrrr8852,&X<",
"<X&=oO:4q3O+42:2szkkklbbxxllbmmmBCCmmVCNxdrskdr8rrrrrrrrr872,&X<",
"<X&=OO;>qq+ 1411rkxlkkbmblllbmmmmCZVmmVVbkttddr88rrrrr8888753&X<",
"<X&>@+++4q3o:4425rlxkklmbbvvvmmmmBCCmmmVbkttssrr8888888888773*X<",
"<X&>@+O+3qq:@27728dxktkbmmbvmmmBmmBCVmbNbxdttttt8757888777883*X<",
"<X&,@OO+:7u4@#2758dxxdkbmmmbbmmBBvmCCmbmmxktttddr725788827784*X<",
"<X*31:@+O4p8112886rzbkklbmmbbmmmBvvBCVmbbxkttttdr852788877880*X<",
"<X*421:#@2ws712888rdxlkkxbmmbbmmBmvmVVmbmxkttttssr52578r7778q*X<",
"<X*08721118fs52r8rrrdxlklbmmbvbmmmvvmVmmmbldtttszs85278s8878q*X<",
"<X*q88752$7zz858rrrrtxxkklmmmlvmmmvlbmVNmblktttdxdr8578ss878q*X<",
"<X*9qq44334qww74qqq7quuwwupfppuppppuuphhhppwqqqqwwwq444qwq449*X<",
"<X%**********************************************************%X<",
"<XXXXXXXXXXXXXXXXXXXXXXXXXXXXXXXXXXXXXXXXXXXXXXXXXXXXXXXXXXXXXX<",
".<<<<<<<<<<<<<<<<<<<<<<<<<<<<<<<<<<<<<<<<<<<<<<<<<<<<<<<<<<<<<<."
};
