/* XPM */
static char *cd3baa1c98324c2b9bc056a632c9131aSAR3coOZuLQd0aDv[] = {
/* columns rows colors chars-per-pixel */
"64 64 187 2 ",
"   c #322C21",
".  c #38352A",
"X  c #423E36",
"o  c #454136",
"O  c #49453B",
"+  c #57503D",
"@  c #4D4A43",
"#  c #504D47",
"$  c #534F4A",
"%  c #5B5445",
"&  c #55514C",
"*  c #59544C",
"=  c #5E5B4E",
"-  c #555452",
";  c #595551",
":  c #5D5A55",
">  c #5E5D5B",
",  c #635B4F",
"<  c #625C53",
"1  c #635F59",
"2  c #656155",
"3  c #6B6455",
"4  c #66635D",
"5  c #6C645C",
"6  c #6D695E",
"7  c #786754",
"8  c #716A5D",
"9  c #79715D",
"0  c #656462",
"q  c #6A6662",
"w  c #6C6A64",
"e  c #666668",
"r  c #676968",
"t  c #6D6D6B",
"y  c #726B62",
"u  c #716E6B",
"i  c #6F706E",
"p  c #767365",
"a  c #7D7165",
"s  c #73726D",
"d  c #7A766C",
"f  c #6A6C72",
"g  c #757573",
"h  c #797673",
"j  c #7C7A75",
"k  c #74767A",
"l  c #77797D",
"z  c #7C7C7B",
"x  c #867A6A",
"c  c #817D75",
"v  c #8A7F73",
"b  c #817E7B",
"n  c #7F817E",
"m  c #87806E",
"M  c #9B886E",
"N  c #8A8273",
"B  c #84817D",
"V  c #8B857C",
"C  c #8E8A7F",
"Z  c #968775",
"A  c #928B7F",
"S  c #9F947F",
"D  c #A4937D",
"F  c #A3997E",
"G  c #AE9979",
"H  c #B49B7F",
"J  c #7C7E81",
"K  c #7E8184",
"L  c #848483",
"P  c #898683",
"I  c #878986",
"U  c #8C8A85",
"Y  c #858689",
"T  c #888788",
"R  c #87888C",
"E  c #8C8C8B",
"W  c #948583",
"Q  c #928C84",
"!  c #928E8B",
"~  c #9A8B88",
"^  c #969185",
"/  c #9E9482",
"(  c #93918D",
")  c #9B958C",
"_  c #9F988C",
"`  c #878C90",
"'  c #8C8E92",
"]  c #8E9094",
"[  c #8F9398",
"{  c #949493",
"}  c #999692",
"|  c #9C9995",
" . c #949699",
".. c #97999B",
"X. c #9C9C9B",
"o. c #A29385",
"O. c #A0948D",
"+. c #A39B8D",
"@. c #AA9E8C",
"#. c #B19E8E",
"$. c #A29593",
"%. c #A39C93",
"&. c #AC9D95",
"*. c #A29E9B",
"=. c #AC9E99",
"-. c #9FA09D",
";. c #AEA18E",
":. c #B5A38E",
">. c #B8A68B",
",. c #BCA98D",
"<. c #A5A196",
"1. c #ACA295",
"2. c #A4A19D",
"3. c #AAA49C",
"4. c #ADA99C",
"5. c #B2A694",
"6. c #BFA490",
"7. c #B5A992",
"8. c #BBAC95",
"9. c #B2A59C",
"0. c #B3AA9D",
"q. c #B9AD9E",
"w. c #BFB09C",
"e. c #9D9EA1",
"r. c #9EA0A2",
"t. c #A4A3A3",
"y. c #AAA6A2",
"u. c #A7A8A7",
"i. c #ACA9A5",
"p. c #A4A5A9",
"a. c #ACA7A8",
"s. c #A7A9AC",
"d. c #ACACAB",
"f. c #B3ACA4",
"g. c #BAADA3",
"h. c #B2AEAB",
"j. c #BCAEA9",
"k. c #B6B0A5",
"l. c #BBB1A5",
"z. c #B5B1AC",
"x. c #BAB4AC",
"c. c #BEB8AD",
"v. c #ADAEB2",
"b. c #B1AFB2",
"n. c #AEB0B2",
"m. c #B5B4B3",
"M. c #BAB6B2",
"N. c #BDB9B5",
"B. c #B6B6B9",
"V. c #B8B7B9",
"C. c #B7B8BB",
"Z. c #BCBCBB",
"A. c #C0A795",
"S. c #C2B49C",
"D. c #C3B4A4",
"F. c #C1B5AA",
"G. c #C1B9AE",
"H. c #C8BBAD",
"J. c #C2B6B3",
"K. c #C2BCB5",
"L. c #C8BFB6",
"P. c #C1BEBB",
"I. c #C8BFBB",
"U. c #C7C1B6",
"Y. c #CAC1B2",
"T. c #C4C1BD",
"R. c #C9C3BC",
"E. c #CEC9BF",
"W. c #B6BBC3",
"Q. c #BEBEC1",
"!. c #C0BFC0",
"~. c #BFC0C2",
"^. c #C4C4C3",
"/. c #C6C6C5",
"(. c #C9C6C3",
"). c #C7C8C7",
"_. c #CBC9C6",
"`. c #C8C7C8",
"'. c #C7C8CA",
"]. c #CAC9C9",
"[. c #CBCBCA",
"{. c #D0CFCE",
"}. c #D0D0CE",
"|. c #CCCDD1",
" X c #CFD0D0",
".X c #D2D2D2",
"XX c #DADAD9",
/* pixels */
"f.f.J.I.K.u.h u./.Z.t } m.].^.t.E ].Y.U.T.x.x.).} } t.z.f.^ U b N A @.:.j t U.N.N.N.x.N.R.R.K.N.x.f.P.P.Z.m.! B ~ I.y.N.x.3.g.].",
"P.W h.I.T.^.z m.^. Xm.l s T ..R K u.z.M.Z.z.i.{ P 1.S +.q./ C w | i.f.q.B e T.T.N.0.f.m.P.T.N.N.Z.M.m.T.^.m.P j W $.$.f.(.j.9.N.",
"K.g.=.x.J.].K t.].]./.Z.t.{ r.{ p.t.c c ^ X.U b ..z.7.5.4.i.2.= c Z.z.} 0 1 M.P.K.N.i.i.Z.P.T.T.Z.P.m.z.^.e.{ U z s q 5 Q J.J.R.",
"y.g.F.9.h.B.T U P./.M.^.^.].].B.~.y.y M.T.^.M.! Z.x.z.k.i.i.4.9 + %.i.-.z s z.l.g.].P.i.m.z.P.M.Z./.Z.i.m.s.! .XV.M.z.B q h b *.",
"P 4 w h t t s M.^./.m.Z.^.].'.m..XU d XX).^.].) | /.N.3.h.i.4.x % ^ 3.i.U j g.g.N.z.^.P.m.M.^.P.V.Z.M.m.h.s.{ ].m.P.].].Z.u.t.X.",
"^.X.E j b s g ].^./.].]./.].].Z.].j z ].^./.].].Q i._.z.i.| <.N , *.^.i.} _ 4.U.T.M.z.P.M.h.V.Z.V.Z.T.P.M.B.{ Z.P.(.^.].]./.^.].",
"(.K.d.3.P 0 z }.T.Z.Z.`.].]..X/./.{ T m.M.V./.].d.B T./.m.M.z.V = j i.M.i.u.Q N.^.T.T.(.Z.M.m.Z.!.M.V.^.N.Q.R h.].]./.^./.].Z.(.",
"(.U.N.i.B : ( ]./.]./.^./.].].).Z.P E d..X/.).^.P.( P ].V.m.d.8 6 O   @ & E ) $.P.M.^./.Z.^.Z.z.N.^.P.T.m.Z.l { V.!./././.]./.^.",
"T.T.T.i.5 $ t.].^./.].^.].].Z..Xi.T y < h y.T.].Z.^.B t./.Z.| 3 U %.Q 5 * g M.%.3.].^.Z.m.z._.M.h.Z.^.`.^.`.Y l Q.m.V.Z.Z.^.P.Z.",
"M.U.T.L w & j  X.X^./.Z.Z.].V.'.t.3.o.x 7 8 U P w R 2.B d.d.p x 4.z.g.l.z.B Z.U./ z.].P.T.N.Z.^.^.V.Q.B.^.|.Y 0 Q././.Z.V.^.M.m.",
"P.N.B l ..T $ ; { Z./.]./.].].z._ l.w.D.H.R.(.1.) t h.i.X.X.j ) 9.1.+.0.N.z X.'.M.) M.c.P.^.^.Q.].Q.B.^.Q.m.{ e m.].].^.V.V.z.i.",
"} 2.E E p.E 4 $ q h E d.u.r.X...X.(.K.M.N.M.P.(.g.8 i.M.| ( V k.z.x.1.1.x.b h ^./.i.y.Z.V.Z.^.m.^.Q.Z.m.{ h r.E u..X).).^.Z.N.{ ",
"0 ..t.s.u.B P 2.T.h.( g g g z h d.M.V.m.m.d.d.N.P.v @.@.3.P _ K.h.N.k.g.z.V 5 m.Z.P.i.^.Z.Z.^.Z.m...L g Y L  . .P ^.(.T.).T.R t ",
"U E { t.m.t.Z.Z.M.M.].^.v.v.Y l ].].Z.h.d.V.V.V.^.c Z +.t.z %.K.M.x.N.x.f.*.j h./.Q.*.! m.Z.m.p.' { X.2.i.e.E J : M.P.Z./.X.E E ",
"M.Z.i.2.T.m.m.^./.^./.'.C.s.g T |./.`.M.m.^.P./.^.s } *.r.g 3.l.N.N.x.M.h.h.! c *.2.E c s h ' X.4.3.8.,.0.F.M.m.t P Z.m.p.{ j h.",
"h.N.h.^.Z.M.z.^./.`./././.s.: { ]..X].V.z.Z.^.].].b d.'.n.h 3.q.z.K.N.M.x.f.} ( h.z.x.k.<.L X.T.>.G :.8.l.c.c.F.M.t L R Y t.T i.",
"z.y.m.].^.Z.m.V.Z.Q.`.`.].m.- m.].].].].Z.m.Z./.}.E E ^.Q.s i.D.f.N.K.K.N.2.E y.M.M.Z.N.z.k.B 2.T.0.7.c.x.z.T.K.l.m.k e T t.3.z.",
"P.+.V./.Z.Z.M.d.Z.Q.Z./.].Z.- 2.^./._.(.^.V.^.]..Xd.B d.`.E %.D.0.N.U.c.u.( c M.T.M.x.M.M.M.m.L u.N.z.^.Z.f.Z.P.l.d.K L *.| %.h.",
"x.9.z.Z.]./.P.i.i.m.N.G.J.m.> ( m.^._.^.^.^.T.].XXM.B X.m.2.*.l.0.x.N.i.} { | x.U.x.:.l.^.V.P.m.K i.M.^.^.f.x.K.g.s.g E d.} X.z.",
"} x.x.d...Z.].P.l.0.0.&.f.].g B i.V.(.T.M.m.V.^..X(.| h.m.( ! l.9.x.i.t.{ | N.N.P.R.K.^.}.^.T.^.s.z d.^.`.M.f.G.N.W.L E V.d.i.2.",
"g B y s z J ..B ! z.J.N.Z.].E P h.P.].].Z.m.m.m.).).M.^.Z.E } K.g.| { t.y.z.P.T.T.(.(.P.(.(./.(.).p.g d.].Z.h.M.3.v.] ] y.T P L ",
"2.M.B t.W.e.p.E * 0 ..v.p.v.E d *.<.x.M.i.X.m.Z.Z.^.Z.Z.^.j B I.*.{ } N.T.P.^.Z.^.).).T.T.^.).]./.].L s X.B E  .R L ' l L  .X.( ",
"y.e.L m.P.M.Z.^.f.j 0 [ p.v...b P V U } T s L p.^.^.Z.m.t.L { y.{ { d.P.P.P.^.M./.].].)././.^.(.).).U b R f J e.d.Q.e.z e ] r.*.",
"p.T z V.N.Z.].P.M.M.b t.3.M.t.M.z.h.m.^.Z.y.R s h y.m.y.L t.^.m.l ..).M.P.M.(.^./.].].]./.^.T.].].].( s E J X.!.B.R J d.} T ]  .",
"v.e U T.z.m./.].T.} B +.#.G.( t.V.m.V.b.h.f./.m.} } t.} b } M./.P 1 z.^.T.T.Z.^.^.(.].].].^.^.^.^.V.t.z.t.E B.h.u.l z m.W.Z.n.B.",
"T 0 u.(.z.M./.^.( h } ^ | %.U R d.m.B.h.a.y.M.(._.^.d.( ( i.h.a.Z.B 4 T.T.m.M.^.Z.Z./.].].].]./.^.~.{ N.K.| Z.Z.e.z m.`.~.B.m.B.",
"0 } Z.Z.z.m.m.E B d.).).d...T g ! M.m.b.h.i.d.m.V.M.| L N.N.x.=.M.^.j w /.(.V.].]././.].^.^.].^.T.V.R f.U.*.t.d.l  .^.^.`.~.m.t.",
"E /.^.V.t.X.} X.M.^.^.^.P.^.m.( h ! f.h.h.f.m.V.m.t.( ! P.I.R.K.h.N.^.u c Z.].).^.).^.{.).T.^.Z.m.v.E N.U.x...{ z m.Z.^.^.^.W.' ",
"d.X...} { { i.M.M.N.(.L.T.^.m.m.h.h b h.h.m.V.m.s.{ *.J.M.Z.M._.x.g.J.h.1 & E .X).(.(.^././.Z.m.m.X.P T.R.R.c.i.M.^.^.)./.^.v.0 ",
"| %.2.h.} i.^.M.N.P.T.6.H.^.M.T.^.M.z s t.^.Z.B.t.P $.y.i.P.m.Z.M.P.(.Z.u.s X U ]..X].(.Z.].^.Z.^.i.3._.T._.R.)._.T.).}.Z.{ h @ ",
"<.4.5.i.z X._.P.x.R.J.l.R.U.P.T.N.T.Z.R 1 { b.p.E *.P.M.$.i.M.^.Z.h.^.).m...q 1 t { .X/.^.].].m.X.d.K.U.I.(._.]._.].N.M...R g @ ",
"0.5.D %.t j c.N.N.K.U.N.U.K.U.c.K.T.P.m.X.q 0 z ) y.y.M.M.x.N.I.P.M.M.(.T.u.z t.i.0 ( .XV.^.^.V...f.U.T.(.P.T._.Z.u.m.d.m.u.{ j ",
"/ ;.8.8.j u U.x.N.N.x.N.T.R.K.N.x.f.P.N.T.m.E b ~ I.y.M.z.3.h.].f.f.J.I.K.u.h u.].Z.w ..m.].^.t.E ).Y.U.T.x.x.).} ( t.M.x.%.i.{ ",
"@.5.;.5.b 0 T.T.N.0.f.m.P.T.N.N.Z.M.m.T.T.m.U j W O.$.f._.j.9.P.P.W h.I.T.^.z m.^..Xm.h t T ..R K i.z.M.Z.z.i.{ P 5.S +.8.F <.Q ",
"d d l t # : N.P.K.N.i.i.Z.P.T.T.Z.P.m.z.^.e.{ U z s q 5 Q J.J.R.J.g.=.x.J.].L t.].)./.Q.t.{ r.{ p.t.c c ^ X.U z ..z.0.5.4.i.3.d ",
"d 3.n.` r w z.l.g.].N.i.h.h.P.M.Z./.Z.d.m.u.! .XV.m.z.B q h b 2.a.g.F.9.h.B.R U Z./.M.^.~./.^.u.m.2.y M.^.^.z.( m.z.z.k.k.z.4.m ",
"3 %.z.t.P B z.z.N.M.P.M.M.M.T.P.V.Z.M.m.h.s.{ ].m.N.].].Z.u.t.t.P 4 w h t t B i.M.T.M.m.M.m.V.y.i.Q j ).^.t.m.i.d.T.x.z.i.2.4.N ",
"5 *.^.i.| +.0.K.^.T.N.N.z.Z.P.Z.V.M.P.P.M.B.{ Z.Z.^.^.].]./.P.].^.X.E j b t ( 4.%.t.} X.{ ( ) d.) 8 U t.P B M.^.N.P.T.P.%.V *.A ",
"2 h i.N.M.T.l.x.T.T.^.(.z.z.Z.T.U.M.M.T.N.Q.R h.]././.^./.].Z./.(.K.h.3.U 4 z f.B j j B B | U i.<.6 < 5 4 | M.M.P.N.T.(.h.z.z.Q ",
"w O   O $ 4 *.T.N.z.z.f.N.T.T.U.U.U.P.P.m.Z.l { V.Z./././.]./.^.^.U.Z.a.P g 4 z n { ) | y.2.Q d.y.( j h | 1.4.x.N.N.T.^.V.d.i.p ",
"( | Q 2 % o . w } 2.3.9.c.^.].K.x.K.K.^.^.`.Y l Q.m.V.Z.Z.^.P.Z.T.T.T.y.s L s w ( X.2.2.2.| Q | 2.d.( i._.G.l.g.f.N.T.N.d.V.^ 3 ",
"3.z.g.x.K.%.B t & 0 w d Q d.M.P.x.l.N.B.^.|.Y 0 Q././.Z.V.^.M.m.M.U.T.P j ] { ( | i.m.h.z.2.2.2.C 2.P 8 T.K.J.x.1.%.z.M.t.2.y d ",
"4.1.+.0.K.c.l.E.X.d } c 2 y ( i.Z.V.m.Z.Q.m.{ e m.].].^.V.V.z.i.P.N.B L E z I E | i.Z.z.i.i.i.m.3.! X.: U (.N.M.k.+.i.V.u.} j ) ",
"z.x.1.1.l.l.G.z...c c.Y.g.k.M.u.Z.C.m.v.{ h r.E u..X).).^.Z.N.{ { 2.E P s B t.( ( { M.Z.z.h.i.*.z.i.h.} q (.^.(.U.9.3.z.| ( V l.",
"h.N.k.g.x.7.0.u.U 2.P.K.N.M.^.Z.m...L h Y L  . .P ^.(.T.).T.R r 0 ..t.{ s ( t.-.X.} t.M.M.Z.Z.y.2.z.f.t.4 3.(.T.K.l.D @.3.B _ K.",
"M.x.N.x.c.q.f...E z.h.h.Z.m.B.p.' ] X.2.i.e.E J : M.P.Z./.X.E E P E E X.w P t.X.d.y.z.z.4.x.N.M.d.i.h.X.I ; b } ! N M ) t.j <.K.",
"N.N.x.c.c.l.z.{ m.z.M.i.2.T ' X.4.3.8.,.0.F.M.m.t P Z.m.p.{ h h.M.N.t.z.( 4 z.d.M.i.z.K.g.z.N.i.z.Z.t.T T t w d c j } X.r.g 3.l.",
"z.K.N.N.K.N.*.} ^.T.T.P.N.X.t.T.>.G >.8.l.c.c.F.M.t L R Y t.P i.z.M.f.Z.z.0 j 2.| h.f.z.f.h.M.f.U E Y { ..! X.d.M.m.Z.^.n.h 3.q.",
"g.N.K.K.N.X.B 2.M.M.Z.Z.P.T.( t.T.0.7.c.x.z.T.K.l.m.k e T t.3.z.M.i.z.z.k.X.4 <.) i.<.i.M.M.t.E B ..d.d.f.%.t.d.h.t.d.Z.~.s i.D.",
"g.N.U.c.d.E j M.T.M.x.x.M.M.Z.E d.N.z.^.Z.f.Z.P.l.d.K L *.| %.h.U.%.M.U.l.N.I s i.i.M.d.} U } y.d.h.^.K.x.M.h.h.h.X.2.d.`.E %.D.",
"g.x.N.d.} { | x.U.c.:.F.^.V.T.Z.T f.M.^.^.f.x.K.g.s.g E d.} X.z.x.0.M.z.U.c.f.h : b c , 4 z | l.l.3.Z.K.x.M.M.Z.M.i.X.*.m.2.*.l.",
"0.x.d.t.{ | N.N.I.R.K.^.}.^.T.).s.s i.^.`.M.f.G.N.W.Y { m.d.i.*.{ M.Z.z.M.K.z.z.B w N Q %.Z H ,.l.4.i.f.N.M.M.M.V.^.m.m.m.( ! G.",
"g.| ( t.y.z.P.T.T.(.(.P.(././.(.^.] > M.].Z.h.M.3.p. . .p.T T B g ! 2.y.N.f.P.i.z.*.g.q.#.a :.S.G.P.0.0.f.x.Z.V.m.V././.Z.E } K.",
"*.{ } Z.T.P.^.Z.^.).).T.T.^.).].^.W.L g } V E  .T Y r.{ E  .X.( *.M.2.z.U.k.T.c.k.3.@.g.g.s o.g.l.K.c.q.c.z.M.V.m.V.V.!.^.j B T.",
"E { d.P.P.P.^.M./.].].)././.^./.(.T.t.E z f Y X.X.y.z.2.g ] r.*.y.y.| x.N.0.U.T.N.f.x.0.x.A v F.l.q.q.1.J.N.h.Z.M.Z.Z.m.t.L { y.",
"h ..).M.P.M.(.^./.].].]./.^.T.].].].X.B { X.m.V.i.T.N.Z.X.T ] ..p.E } M.N.f.z.T.K.i.! G.7.$.4 4.l.l.g.o.3.z.d././.Z.V.t.P t.^.m.",
"P 4 z.^.T.T.Z.^.^.(.].].].^.^.^.^.V.t.h.M.i.N.^.(.(.K.P.Q.Z.v.B.v.t { T.K.K.K.(.M.U w o.A.F.w u %.z.g.=.f.z.d.m./.].d.E b } M.^.",
"Z.L 4 T.T.m.M.^.Z.Z./.].].].]./.^.~.{ M.R.F.G.U.T.].(.^.^.B.n.B.R e i.N.z.T.T.d.s h ( ! | %.B i ^ g.3.$.f.M.h.m.Z.Q.t.P } i.h.a.",
"M.^.j w /.(.Z.].]././.].^.^.].^.T.V.R i.R.R.R.R.N.^.].].'.~.m.e.q } Z.Z.T.M.E r z m.].).d...P w b g.4.%.f.m.m.d.m.t.E b P.N.x.=.",
"h.N.^.t c Z.].).^.).^.{.).T.^.Z.m.v.E M.U.R.(._.E.(.^./.Q.Q.Q.R P ^.^.M.( g u X.Z.T.^.^.P.^.m.^ u V 3.3.M.M.M.V.u...! ! P.I.R.I.",
"j.g.J.d.1 & E .X).(.(.^././.Z.m.m.X.P T.(.].K.R.]._._.).^.m.v.0 m.Z.i.P s B i.T.M.N.(.L.T.^.m.m.h.t h h.h.m.Z.m.s.{ *.J.M.Z.M._.",
"M.P.(.V.s.s X U ]..X].(.Z.].^.Z.^.u.3._.T.]._._.).T._.].^.m.X.$ t.V.z.z.} i.).M.N.P.T.6.H.^.M.T.^.m.j u t.^.Z.B.t.P $.y.a.P.m.N.",
"M.z.^.).m...q 1 u { ]./.^.].].m.r.d.K.U.I.(._.].].].Z.M.u.y.B # } h.0.i.z | _.P.x.R.J.l.R.U.P.T.N.T.Z.R 1 { v.t.E 2.Z.M.$.i.N.^.",
"^.x.M.(.(.u.z 2.y.4 { ].V./.^.C.} h.R.T.R.P.T.].Z.d.d.d.m.d.R g f.0.+.%.t j c.N.N.K.U.N.U.K.U.c.K.T.P.B.X.0 0 z } y.y.M.M.x.M.T."
};
